<?xml version="1.0" encoding="utf-8" standalone="no"?>
<!DOCTYPE svg PUBLIC "-//W3C//DTD SVG 1.1//EN"
  "http://www.w3.org/Graphics/SVG/1.1/DTD/svg11.dtd">
<svg xmlns:xlink="http://www.w3.org/1999/xlink" width="236.763651pt" height="457.92pt" viewBox="0 0 236.763651 457.92" xmlns="http://www.w3.org/2000/svg" version="1.1">
 <metadata>
  <rdf:RDF xmlns:dc="http://purl.org/dc/elements/1.1/" xmlns:cc="http://creativecommons.org/ns#" xmlns:rdf="http://www.w3.org/1999/02/22-rdf-syntax-ns#">
   <cc:Work>
    <dc:type rdf:resource="http://purl.org/dc/dcmitype/StillImage"/>
    <dc:date>2026-01-02T09:48:09.710665</dc:date>
    <dc:format>image/svg+xml</dc:format>
    <dc:creator>
     <cc:Agent>
      <dc:title>Matplotlib v3.10.0, https://matplotlib.org/</dc:title>
     </cc:Agent>
    </dc:creator>
   </cc:Work>
  </rdf:RDF>
 </metadata>
 <defs>
  <style type="text/css">*{stroke-linejoin: round; stroke-linecap: butt}</style>
 </defs>
 <g id="figure_1">
  <g id="patch_1">
   <path d="M 0 457.92 
L 236.763651 457.92 
L 236.763651 0 
L 0 0 
L 0 457.92 
z
" style="fill: none; opacity: 0"/>
  </g>
  <g id="axes_1">
   <g id="PatchCollection_1">
    <path d="M 42.674472 164.28751 
L 42.998254 163.862605 
L 44.04074 163.005229 
L 44.322726 162.560192 
L 44.457941 162.055773 
L 44.129687 161.247113 
L 44.066543 160.182749 
L 44.567646 159.273558 
L 45.743608 157.827819 
L 45.77669 157.408919 
L 45.522243 157.163356 
L 44.977358 156.944785 
L 44.726995 157.078731 
L 46.177844 154.918756 
L 46.589467 153.982255 
L 47.344769 151.801517 
L 47.879306 150.862486 
L 48.796727 149.080297 
L 49.480653 147.921793 
L 51.314244 145.811016 
L 51.919149 145.30393 
L 52.429984 144.705459 
L 53.126508 144.164994 
L 53.850565 143.469977 
L 54.84343 142.366967 
L 55.738877 141.018071 
L 56.251631 140.512897 
L 56.527752 140.47572 
L 57.518651 140.795978 
L 58.605476 141.299171 
L 59.261987 141.811797 
L 59.733845 142.328221 
L 60.540356 142.651702 
L 61.133295 143.072318 
L 61.703588 143.895865 
L 62.091541 144.815902 
L 62.110969 145.774421 
L 62.25589 146.854604 
L 62.345536 148.24448 
L 62.674867 149.320294 
L 63.434867 150.387848 
L 64.631506 150.239044 
L 66.50032 149.860643 
L 68.033997 149.643704 
L 69.043035 149.34479 
L 69.815502 149.514441 
L 70.676467 149.496798 
L 72.001175 149.593316 
L 73.297581 149.81408 
L 73.943322 149.800859 
L 74.688741 150.157154 
L 75.61497 150.323684 
L 76.69185 150.332566 
L 78.785813 150.444316 
L 80.727943 150.651935 
L 81.833605 150.567519 
L 83.742514 150.652194 
L 84.607221 150.82061 
L 85.049416 151.398952 
L 85.483114 151.544672 
L 85.489971 151.885169 
L 86.335692 152.641349 
L 86.467995 153.10236 
L 86.943547 153.804266 
L 86.952255 154.236886 
L 87.270926 154.787422 
L 87.373756 155.311446 
L 87.019148 156.029703 
L 87.029733 156.55561 
L 87.283757 156.952312 
L 87.99715 157.247487 
L 88.40874 157.826462 
L 89.153473 158.151916 
L 90.65631 157.935803 
L 90.996501 158.021613 
L 92.411444 158.023704 
L 92.999361 158.197215 
L 93.314269 158.561772 
L 93.745315 158.583911 
L 94.755111 158.316042 
L 94.820283 158.5002 
L 95.469023 158.641568 
L 96.029325 158.970805 
L 96.565031 159.609685 
L 97.272878 159.626201 
L 98.132557 159.546889 
L 98.597424 159.722922 
L 100.099711 159.475986 
L 101.304386 159.729734 
L 102.3929 160.325905 
L 103.879951 160.852745 
L 104.906942 161.450763 
L 106.383449 161.451717 
L 108.15277 162.251094 
L 111.000513 163.152291 
L 112.645524 163.892404 
L 113.51198 164.153086 
L 114.226523 164.509588 
L 115.317445 165.230028 
L 115.592317 165.131724 
L 116.54841 163.720665 
L 117.609208 164.47206 
L 118.743106 165.810517 
L 119.74919 165.3568 
L 122.401331 165.705683 
L 123.90914 165.737065 
L 124.771878 165.812392 
L 125.254012 166.854322 
L 125.622902 166.846878 
L 126.352214 166.399368 
L 126.556337 165.838215 
L 127.849481 165.904876 
L 129.113132 166.033968 
L 129.911348 165.956052 
L 131.26478 165.959695 
L 131.304114 166.392282 
L 130.427257 167.152469 
L 129.033296 168.201309 
L 128.521029 168.737175 
L 127.764698 169.371289 
L 127.634316 170.549237 
L 126.31849 170.885501 
L 125.625466 171.611091 
L 125.166809 171.744003 
L 124.503345 172.406589 
L 124.545842 172.993683 
L 124.896241 173.605475 
L 125.956957 174.357506 
L 126.342561 176.731279 
L 126.801253 178.145241 
L 126.787762 179.011692 
L 127.450555 179.864502 
L 127.181919 180.271804 
L 126.543603 180.656234 
L 125.939835 181.22487 
L 125.711163 182.095664 
L 125.47504 182.595639 
L 125.111105 182.850298 
L 125.251836 183.744551 
L 125.378964 183.999215 
L 125.871286 185.967205 
L 126.501486 186.840502 
L 126.861316 187.603766 
L 126.794008 188.067669 
L 126.457092 188.459436 
L 126.002353 188.699594 
L 125.333208 189.714602 
L 125.076791 190.297814 
L 125.131144 191.105738 
L 126.798639 192.150589 
L 126.595789 193.502659 
L 126.537601 194.428344 
L 125.632689 195.140134 
L 124.157399 196.055929 
L 123.518102 196.646293 
L 123.344481 197.535815 
L 123.123196 197.964335 
L 122.522234 198.553929 
L 122.069071 198.871643 
L 120.320546 199.522929 
L 120.093962 199.681497 
L 119.472362 201.158121 
L 119.405834 201.659928 
L 118.68741 202.874282 
L 118.787314 203.686535 
L 119.463548 204.00942 
L 120.247997 204.162133 
L 120.703828 204.630051 
L 120.72621 205.753016 
L 120.650916 206.17509 
L 119.999237 207.087113 
L 119.789467 207.765054 
L 118.842799 207.868189 
L 118.444523 208.887086 
L 118.293344 209.704419 
L 118.560088 210.484717 
L 118.906034 211.039431 
L 119.100228 212.382908 
L 119.094717 213.505855 
L 118.948717 214.575649 
L 118.547581 215.454032 
L 118.446021 215.961217 
L 118.655316 216.659268 
L 118.600181 218.091783 
L 118.052903 218.636565 
L 117.593274 219.375561 
L 117.694848 220.271778 
L 118.097114 220.85335 
L 118.666207 221.402967 
L 119.045053 222.209583 
L 119.284385 223.019021 
L 119.268176 223.609058 
L 118.97092 224.092204 
L 118.58657 224.408539 
L 118.112407 224.418129 
L 116.732188 223.77235 
L 116.42654 223.834531 
L 115.829738 224.688886 
L 115.683621 225.758688 
L 114.498175 226.48439 
L 113.415405 226.759468 
L 112.641696 227.1397 
L 112.374598 227.734822 
L 112.49848 228.350021 
L 113.401652 228.864856 
L 114.0242 229.301384 
L 114.424294 229.771 
L 114.601136 230.244554 
L 114.639101 230.748919 
L 114.523762 231.958675 
L 114.118278 232.612594 
L 114.005178 233.934299 
L 113.397835 235.659155 
L 113.4861 237.285346 
L 113.612849 238.041063 
L 113.635259 239.163454 
L 113.397034 239.813989 
L 112.653588 240.306187 
L 112.053421 240.992055 
L 111.593316 241.703085 
L 111.630881 243.583457 
L 111.205402 244.630933 
L 110.719031 245.426494 
L 110.348771 246.444855 
L 110.046459 246.675553 
L 108.906524 248.27066 
L 108.149692 249.493439 
L 107.081762 251.046267 
L 105.721058 251.23721 
L 101.834937 251.422308 
L 99.772469 251.675392 
L 94.313032 252.033819 
L 93.342171 252.547067 
L 90.894446 252.808688 
L 89.91651 252.969203 
L 88.09513 253.006355 
L 86.697434 253.211618 
L 83.722864 253.412932 
L 83.096049 253.602477 
L 82.577007 253.930398 
L 80.785397 255.448019 
L 80.059742 255.956329 
L 79.36146 256.147349 
L 79.269706 255.718166 
L 78.632822 255.041149 
L 77.698002 255.039276 
L 76.987817 254.844988 
L 76.614466 254.873628 
L 76.126315 255.38526 
L 75.342611 255.673124 
L 74.860713 256.497864 
L 74.389422 256.821333 
L 72.084246 256.847563 
L 71.4421 256.944136 
L 71.237424 257.094741 
L 70.9992 257.643262 
L 70.813941 258.754751 
L 70.031585 260.129887 
L 68.986513 260.840785 
L 68.241952 261.002468 
L 67.557137 261.037519 
L 66.523995 261.309543 
L 65.618452 261.725364 
L 64.778509 262.307249 
L 63.461877 262.940346 
L 62.551612 263.125874 
L 60.195252 263.696953 
L 59.572232 263.709766 
L 59.070464 263.553262 
L 58.834503 263.181885 
L 58.801851 262.59692 
L 58.902276 261.403748 
L 59.177442 260.624628 
L 59.756592 259.483441 
L 59.80505 258.792981 
L 59.728217 258.083514 
L 59.399943 257.254393 
L 59.366379 256.628033 
L 59.585473 256.163301 
L 59.512986 254.638874 
L 59.568127 250.185396 
L 59.824924 249.532066 
L 60.276842 249.271955 
L 61.604854 249.203239 
L 61.807903 248.968662 
L 61.838831 248.445972 
L 61.451496 247.784886 
L 60.816217 247.191895 
L 60.744328 246.71215 
L 61.042148 246.037565 
L 61.096948 245.659625 
L 61.052502 243.466163 
L 61.230397 243.023281 
L 61.84756 242.717779 
L 61.947047 242.506913 
L 62.285722 240.765219 
L 62.477338 238.942552 
L 62.630822 236.263805 
L 62.575046 234.529635 
L 62.435935 233.822036 
L 61.857893 232.977048 
L 61.028449 231.007964 
L 60.994149 229.315354 
L 60.746792 228.380161 
L 60.62633 227.567187 
L 60.634769 226.960967 
L 60.809444 226.35133 
L 61.498736 225.500714 
L 61.71915 225.098959 
L 62.246308 224.461081 
L 63.083895 223.754416 
L 63.244632 223.479298 
L 63.206424 222.62322 
L 62.990263 221.185167 
L 63.011529 220.181459 
L 63.434977 219.545717 
L 63.214946 218.943608 
L 63.16032 218.296689 
L 62.916617 217.549242 
L 63.110483 216.855804 
L 63.438031 216.619258 
L 64.207719 216.665863 
L 64.497648 217.64218 
L 64.829226 217.593958 
L 65.603141 216.825618 
L 65.966421 216.295528 
L 66.366138 215.513875 
L 66.620473 214.735206 
L 67.041205 212.928856 
L 67.221762 210.562806 
L 67.209157 208.911758 
L 67.146023 207.847375 
L 67.110503 206.091805 
L 67.031442 205.257567 
L 66.735511 203.988558 
L 65.167298 199.401059 
L 63.923646 195.454951 
L 63.222121 193.650652 
L 63.160773 191.645387 
L 62.752575 189.960475 
L 61.603796 187.622327 
L 61.527012 186.912872 
L 61.703844 186.407608 
L 61.711935 185.780404 
L 61.305796 185.224707 
L 61.127729 184.642741 
L 60.262056 182.946823 
L 59.250162 181.211336 
L 58.232263 179.184334 
L 56.486767 176.126467 
L 55.061829 173.501238 
L 54.433889 172.259508 
L 53.947561 170.827629 
L 53.299734 169.62831 
L 52.742163 168.78294 
L 51.849673 167.819065 
L 50.240995 166.388739 
L 48.233288 164.757839 
L 46.441157 163.498734 
L 45.816944 163.470199 
L 44.138888 163.734647 
L 42.972131 164.615588 
z
" clip-path="url(#p1c1be6fa14)" style="fill: #afbcfd; stroke: #000000; stroke-width: 1.3"/>
    <path d="M 22.483948 166.900564 
L 22.722144 166.35199 
L 24.180916 165.527262 
L 24.950981 165.573691 
L 25.494012 165.708828 
L 26.42098 166.316633 
L 26.827641 166.893821 
L 26.961315 167.329683 
L 26.997859 168.102367 
L 26.802677 168.713038 
L 26.414694 169.055312 
L 26.020375 169.084491 
L 26.093383 169.605605 
L 26.840855 169.5691 
L 27.27199 169.309343 
L 27.512761 168.88613 
L 27.655465 167.733506 
L 27.969449 166.828144 
L 28.028619 165.656254 
L 27.941087 164.424995 
L 27.782838 163.801239 
L 27.589975 163.512427 
L 27.13019 163.396555 
L 26.446368 163.494733 
L 26.356406 163.161791 
L 26.514503 162.761291 
L 26.921862 162.355621 
L 27.256229 161.429422 
L 26.660472 160.55693 
L 27.514301 159.821191 
L 28.15312 159.467887 
L 29.24345 158.640929 
L 29.635006 158.230927 
L 30.090454 157.942677 
L 30.482013 157.532678 
L 30.717829 157.03258 
L 31.382895 156.462344 
L 32.120781 156.447061 
L 33.005548 156.088098 
L 34.987871 156.758675 
L 36.136267 157.261039 
L 37.167281 158.043483 
L 37.767243 158.804516 
L 38.780033 158.690833 
L 39.511536 158.366569 
L 39.903104 157.956007 
L 40.290832 157.360624 
L 40.551803 156.581792 
L 41.006655 156.263251 
L 41.255258 156.381773 
L 40.960326 157.006151 
L 40.975457 157.748364 
L 39.853641 158.544983 
L 39.874319 159.402573 
L 39.72713 159.39395 
L 38.762581 159.999509 
L 37.631801 160.607927 
L 36.843196 160.666235 
L 36.934413 161.061567 
L 37.44026 161.406328 
L 37.696842 161.756244 
L 38.13109 162.667111 
L 38.450074 164.039994 
L 38.781333 164.994989 
L 39.216984 165.968241 
L 39.256815 166.908264 
L 38.786624 167.294206 
L 38.040912 167.414033 
L 37.857728 167.60564 
L 37.893025 168.315941 
L 37.813423 169.509248 
L 37.132263 170.756412 
L 36.410204 171.022162 
L 35.870969 171.075316 
L 35.153249 171.549801 
L 33.890678 171.805751 
L 33.751192 171.077193 
L 32.981999 171.072121 
L 32.804804 171.556421 
L 32.460623 172.002768 
L 31.8862 172.36989 
L 30.705044 172.540766 
L 30.211957 172.822798 
L 29.360668 172.861441 
L 28.777276 172.78954 
L 27.93731 172.368321 
L 27.696807 171.787685 
L 27.785751 171.054394 
L 28.10871 170.588064 
L 29.164394 170.377773 
L 29.218586 169.979429 
L 28.861161 169.77802 
L 28.094599 169.898323 
L 27.816581 170.531126 
L 27.218101 170.73194 
L 25.824775 170.697849 
L 25.0679 170.27492 
L 23.353059 168.74263 
L 22.799618 168.106086 
L 22.582038 167.629972 
z
" clip-path="url(#p1c1be6fa14)" style="fill: #afbcfd; stroke: #000000; stroke-width: 1.3"/>
    <path d="M 17.307439 91.883445 
L 17.445636 91.525356 
L 20.10426 91.386121 
L 20.49661 91.252567 
L 20.951468 90.114479 
L 21.211857 89.628451 
L 21.134941 88.919034 
L 21.685806 88.405978 
L 21.90116 87.753486 
L 22.059917 86.370741 
L 22.352251 84.400199 
L 22.302032 82.9588 
L 22.160489 82.146319 
L 21.840138 81.735344 
L 20.137503 79.826642 
L 18.288831 77.899995 
L 17.640938 76.722411 
L 17.371672 75.766188 
L 17.375818 74.950684 
L 17.546914 74.173706 
L 17.83929 72.203161 
L 18.068024 71.195177 
L 18.636738 70.535343 
L 18.967635 70.444476 
L 19.147392 70.085528 
L 19.741647 69.65556 
L 20.381429 69.41188 
L 20.521645 69.158161 
L 20.491056 68.678178 
L 19.471824 67.654122 
L 18.990764 67.517713 
L 18.669948 67.085757 
L 18.781352 66.435427 
L 18.748258 65.830094 
L 18.573723 65.436511 
L 18.584311 64.934677 
L 18.167383 63.877118 
L 18.402772 63.182215 
L 18.752646 63.00813 
L 19.128688 62.080498 
L 19.159154 61.536256 
L 18.965172 61.20607 
L 18.551159 61.29808 
L 18.207515 60.76161 
L 17.725871 60.604803 
L 17.717289 60.186776 
L 17.959982 59.847518 
L 18.969911 59.408328 
L 19.61431 59.394943 
L 20.29175 58.962668 
L 20.596227 58.601133 
L 21.358554 58.25109 
L 21.826427 57.739765 
L 21.872066 56.923405 
L 21.655626 56.509693 
L 20.732348 56.110655 
L 20.369541 55.658572 
L 20.335874 55.032254 
L 21.186521 54.931185 
L 21.867904 54.686648 
L 22.164506 54.952296 
L 22.476202 54.945827 
L 22.430983 53.755728 
L 22.104957 52.048263 
L 22.080963 50.878139 
L 22.881616 47.329243 
L 23.053087 45.549049 
L 23.236549 44.353624 
L 23.394031 41.144132 
L 22.657105 40.447836 
L 22.694819 39.923862 
L 23.216896 38.830485 
L 23.442022 38.594841 
L 24.480485 38.107853 
L 25.272532 37.136036 
L 25.442064 36.275702 
L 25.638967 35.728015 
L 26.118585 34.777263 
L 26.567199 33.325546 
L 27.146496 32.368284 
L 29.96882 33.700105 
L 31.682474 35.396927 
L 33.1354 35.366859 
L 33.842758 35.132334 
L 34.868874 35.046951 
L 38.077852 34.533837 
L 41.049069 34.572793 
L 41.70142 34.510916 
L 41.820869 34.808247 
L 42.208989 34.883644 
L 42.557976 35.494703 
L 42.873509 35.678337 
L 42.343657 36.140719 
L 42.367834 36.661075 
L 42.784816 37.248569 
L 42.992773 37.834542 
L 43.555534 37.748273 
L 43.673899 38.690139 
L 44.084901 39.109193 
L 46.420891 40.620092 
L 47.973255 42.020016 
L 51.806701 45.58298 
L 53.4291 46.992592 
L 54.401248 47.716841 
L 60.130875 49.727414 
L 62.999298 50.648415 
L 65.482802 51.661929 
L 77.877971 45.872401 
L 79.676172 44.315092 
L 79.86786 41.729065 
L 79.441585 40.099384 
L 77.494702 37.622379 
L 78.550523 33.183754 
L 80.928863 28.571336 
L 81.720704 29.819501 
L 84.095568 30.318141 
L 86.519992 30.259954 
L 88.090703 29.707674 
L 88.559739 28.689659 
L 88.694028 27.808551 
L 89.562979 27.821745 
L 90.211964 27.36 
L 91.089473 27.489698 
L 91.737767 27.985105 
L 92.691289 29.582498 
L 94.223407 30.075678 
L 97.605276 28.355711 
L 98.715281 28.134849 
L 99.33894 28.600453 
L 99.824325 28.675751 
L 100.704162 29.211399 
L 101.795326 30.246699 
L 102.168256 30.205884 
L 102.761903 29.848547 
L 103.109589 29.181825 
L 103.650558 29.268837 
L 103.75723 29.795106 
L 104.225946 30.240542 
L 104.728431 30.380248 
L 105.182615 30.897139 
L 106.667434 30.280859 
L 106.916541 30.50853 
L 106.917557 30.990282 
L 106.403701 32.310701 
L 106.966387 33.261676 
L 107.400127 33.667583 
L 107.465881 34.100197 
L 108.449918 35.263109 
L 109.138549 35.89308 
L 110.268183 36.546201 
L 110.31188 36.348173 
L 110.952667 36.091979 
L 111.971234 36.027032 
L 112.492442 36.066645 
L 112.716723 35.913374 
L 113.125747 36.408452 
L 114.894743 36.556978 
L 115.645327 36.789103 
L 116.032884 36.664032 
L 116.569107 37.204956 
L 117.351014 38.19586 
L 117.86181 38.662645 
L 118.66346 39.545837 
L 119.07046 40.28244 
L 120.660063 41.422108 
L 121.743109 42.671171 
L 122.266526 43.084637 
L 124.261747 43.672553 
L 125.1441 44.094537 
L 128.78014 47.869027 
L 129.783245 48.014469 
L 131.75585 48.125816 
L 131.723714 47.961366 
L 133.075095 47.696233 
L 135.713465 48.637627 
L 137.281399 48.70993 
L 139.573308 48.522151 
L 141.563754 49.936257 
L 144.315352 50.727942 
L 146.061763 51.154341 
L 146.0348 51.588186 
L 146.119758 56.262494 
L 146.212575 60.33764 
L 147.790843 61.952559 
L 149.002389 63.025988 
L 150.82228 64.850152 
L 152.449824 66.316561 
L 154.038197 69.314837 
L 154.926692 70.821719 
L 156.025659 72.509293 
L 157.808794 74.603735 
L 158.823812 76.641214 
L 159.818959 82.025878 
L 160.249787 85.40022 
L 162.905038 86.097295 
L 166.266174 88.050108 
L 167.391065 88.663447 
L 169.119543 89.694052 
L 170.51966 90.475158 
L 171.336117 90.100777 
L 173.565472 89.242753 
L 174.156005 88.95512 
L 176.559097 88.198084 
L 177.620949 87.922664 
L 176.321646 89.933356 
L 173.280727 94.991851 
L 173.0962 99.130894 
L 173.983688 103.544913 
L 173.939324 103.593624 
L 173.761465 106.662245 
L 173.726154 107.777013 
L 173.528093 108.561932 
L 173.203117 110.792408 
L 172.940395 111.492895 
L 171.859319 112.764946 
L 170.865011 113.758223 
L 170.575385 115.431564 
L 170.640457 116.403165 
L 170.942395 117.694933 
L 170.64003 118.71993 
L 170.061174 119.751019 
L 169.717211 121.008991 
L 169.150346 122.641783 
L 168.895785 123.759156 
L 168.823627 124.779573 
L 169.119252 125.746582 
L 168.757931 126.124744 
L 168.554931 127.518731 
L 168.291335 128.172585 
L 168.489237 128.863904 
L 168.60594 130.112118 
L 168.527495 130.808944 
L 168.354194 131.368259 
L 167.955973 132.210279 
L 167.61577 133.653666 
L 167.674799 135.482224 
L 167.893084 136.034317 
L 167.860726 136.729643 
L 167.225176 138.387151 
L 166.957965 138.856183 
L 166.612165 140.021464 
L 166.512572 140.810873 
L 166.189365 141.952375 
L 165.497801 143.101225 
L 165.025165 143.667099 
L 165.207234 144.729114 
L 165.284398 146.303007 
L 165.009643 147.559036 
L 164.088728 148.759132 
L 164.212474 149.197037 
L 163.75027 150.295241 
L 162.97875 150.889837 
L 162.440724 151.641925 
L 161.771735 152.767012 
L 161.377768 153.817199 
L 160.544991 157.146861 
L 160.167621 157.872417 
L 159.780363 158.088969 
L 158.773507 158.433394 
L 158.274609 158.83708 
L 157.257133 159.807586 
L 156.541478 159.729157 
L 155.222498 159.431238 
L 154.5714 159.119962 
L 154.132489 159.058753 
L 153.341587 159.839264 
L 152.858968 159.895588 
L 152.357419 160.160525 
L 152.042424 160.537216 
L 151.333953 160.82963 
L 150.641344 160.750763 
L 150.020071 160.785959 
L 149.772316 161.069149 
L 148.378637 161.652949 
L 146.429111 162.086341 
L 145.115164 162.042708 
L 143.805544 161.049999 
L 143.206332 161.038697 
L 142.517393 161.145271 
L 141.187745 161.47295 
L 140.085253 161.634505 
L 139.30047 161.557535 
L 138.739149 161.128441 
L 138.567364 160.599357 
L 138.241767 160.443751 
L 137.411488 160.390452 
L 136.759766 160.056507 
L 135.359741 159.157837 
L 134.291235 159.874028 
L 133.966122 160.90015 
L 134.134584 162.425541 
L 134.077444 164.187621 
L 133.485216 164.523848 
L 133.329054 164.781887 
L 132.3122 165.775279 
L 131.857246 166.062668 
L 131.26478 165.959695 
L 129.911348 165.956052 
L 129.113132 166.033968 
L 127.849481 165.904876 
L 126.556337 165.838215 
L 126.352214 166.399368 
L 125.622902 166.846878 
L 125.254012 166.854322 
L 124.771878 165.812392 
L 123.90914 165.737065 
L 122.401331 165.705683 
L 119.74919 165.3568 
L 118.743106 165.810517 
L 117.609208 164.47206 
L 116.54841 163.720665 
L 115.592317 165.131724 
L 115.317445 165.230028 
L 114.226523 164.509588 
L 113.51198 164.153086 
L 112.645524 163.892404 
L 111.000513 163.152291 
L 108.15277 162.251094 
L 106.383449 161.451717 
L 104.906942 161.450763 
L 103.879951 160.852745 
L 102.3929 160.325905 
L 101.304386 159.729734 
L 100.099711 159.475986 
L 98.597424 159.722922 
L 98.132557 159.546889 
L 97.272878 159.626201 
L 96.565031 159.609685 
L 96.029325 158.970805 
L 95.469023 158.641568 
L 94.820283 158.5002 
L 94.755111 158.316042 
L 93.745315 158.583911 
L 93.314269 158.561772 
L 92.999361 158.197215 
L 92.411444 158.023704 
L 90.996501 158.021613 
L 90.65631 157.935803 
L 89.153473 158.151916 
L 88.40874 157.826462 
L 87.99715 157.247487 
L 87.283757 156.952312 
L 87.029733 156.55561 
L 87.019148 156.029703 
L 87.373756 155.311446 
L 87.270926 154.787422 
L 86.952255 154.236886 
L 86.943547 153.804266 
L 86.467995 153.10236 
L 86.335692 152.641349 
L 85.489971 151.885169 
L 85.483114 151.544672 
L 85.049416 151.398952 
L 84.607221 150.82061 
L 83.742514 150.652194 
L 81.833605 150.567519 
L 80.727943 150.651935 
L 78.785813 150.444316 
L 76.69185 150.332566 
L 75.61497 150.323684 
L 74.688741 150.157154 
L 73.943322 149.800859 
L 73.297581 149.81408 
L 72.001175 149.593316 
L 70.676467 149.496798 
L 69.815502 149.514441 
L 69.043035 149.34479 
L 68.033997 149.643704 
L 66.50032 149.860643 
L 64.631506 150.239044 
L 63.434867 150.387848 
L 62.674867 149.320294 
L 62.345536 148.24448 
L 62.25589 146.854604 
L 62.110969 145.774421 
L 62.091541 144.815902 
L 61.703588 143.895865 
L 61.133295 143.072318 
L 60.540356 142.651702 
L 59.733845 142.328221 
L 59.261987 141.811797 
L 58.605476 141.299171 
L 57.518651 140.795978 
L 56.527752 140.47572 
L 56.251631 140.512897 
L 55.738877 141.018071 
L 54.84343 142.366967 
L 53.850565 143.469977 
L 53.126508 144.164994 
L 52.429984 144.705459 
L 51.919149 145.30393 
L 51.314244 145.811016 
L 49.480653 147.921793 
L 48.796727 149.080297 
L 47.879306 150.862486 
L 47.344769 151.801517 
L 46.589467 153.982255 
L 46.177844 154.918756 
L 44.726995 157.078731 
L 43.479083 158.898811 
L 42.918651 159.955635 
L 42.428191 161.386653 
L 42.038962 161.666504 
L 41.353058 161.659675 
L 40.559629 161.488249 
L 40.050804 160.997136 
L 40.044254 159.659208 
L 39.874319 159.402573 
L 39.853641 158.544983 
L 40.975457 157.748364 
L 40.960326 157.006151 
L 41.255258 156.381773 
L 41.006655 156.263251 
L 40.551803 156.581792 
L 40.290832 157.360624 
L 39.903104 157.956007 
L 39.511536 158.366569 
L 38.780033 158.690833 
L 37.767243 158.804516 
L 37.167281 158.043483 
L 36.136267 157.261039 
L 34.987871 156.758675 
L 33.005548 156.088098 
L 32.120781 156.447061 
L 31.382895 156.462344 
L 30.717829 157.03258 
L 30.482013 157.532678 
L 30.090454 157.942677 
L 29.635006 158.230927 
L 29.24345 158.640929 
L 28.15312 159.467887 
L 27.514301 159.821191 
L 26.660472 160.55693 
L 26.123899 159.927025 
L 26.223435 158.691304 
L 26.696314 157.427424 
L 27.199042 156.60156 
L 27.727357 156.005566 
L 28.279236 155.554906 
L 29.717338 154.731241 
L 30.182417 154.094569 
L 30.065967 152.466109 
L 29.646693 150.259473 
L 29.444695 149.531634 
L 28.906467 148.623529 
L 28.459179 148.089178 
L 27.593083 147.417106 
L 26.648363 146.956071 
L 25.672593 147.018308 
L 22.969512 147.993669 
L 22.09603 147.970394 
L 21.936885 147.304667 
L 22.153877 146.735539 
L 23.304986 146.105604 
L 24.495563 145.370448 
L 24.794408 144.737213 
L 25.183144 144.436337 
L 25.176303 144.102255 
L 24.836193 143.733093 
L 24.298932 143.890064 
L 23.528234 144.825904 
L 23.077967 145.170058 
L 22.539579 145.264647 
L 21.333017 145.22671 
L 21.038285 145.045013 
L 20.987761 144.606848 
L 21.187816 144.226472 
L 21.898908 143.417849 
L 22.078943 143.079304 
L 23.359251 141.652251 
L 23.713995 140.704047 
L 24.160859 140.193145 
L 25.370498 139.374193 
L 25.734247 138.86502 
L 25.739634 138.111887 
L 25.505228 137.824525 
L 25.006416 137.834874 
L 24.433177 138.264402 
L 23.524892 138.576062 
L 22.383407 138.662756 
L 21.966072 138.587429 
L 21.50309 138.304818 
L 21.452851 137.887646 
L 21.773417 137.295369 
L 22.556922 136.986874 
L 23.048316 136.62145 
L 23.099507 136.076766 
L 22.862513 135.66347 
L 22.80329 134.807854 
L 22.92904 133.843407 
L 23.287656 133.083524 
L 23.282089 132.811829 
L 22.794435 132.341327 
L 22.746766 132.049507 
L 23.010886 131.751798 
L 23.46975 131.825682 
L 23.734005 131.527389 
L 24.086734 131.49907 
L 24.819143 131.735266 
L 25.492628 132.138925 
L 25.973938 132.296343 
L 26.62755 132.742415 
L 27.181444 133.399955 
L 28.71702 133.263712 
L 28.979001 132.861065 
L 28.772365 131.904096 
L 28.781261 131.318294 
L 29.102088 130.74761 
L 29.970817 129.516961 
L 30.801525 128.454506 
L 31.763953 127.745132 
L 32.692249 127.391105 
L 35.199354 126.983996 
L 35.418128 126.498845 
L 35.443439 125.70389 
L 35.59135 124.801992 
L 36.29049 123.408068 
L 36.365514 123.009301 
L 36.592027 119.84848 
L 36.688337 116.418544 
L 36.517093 114.143209 
L 36.382138 109.568418 
L 36.522215 107.266234 
L 36.733134 106.32396 
L 36.209559 105.910743 
L 35.527477 105.68979 
L 34.918221 105.608486 
L 34.079 105.696426 
L 33.53389 105.915355 
L 33.154572 106.270257 
L 32.761817 106.382794 
L 32.075124 106.355015 
L 31.363434 106.118941 
L 29.575286 106.113985 
L 28.736712 105.776145 
L 28.189082 105.432278 
L 27.424451 105.656942 
L 26.908474 106.85928 
L 26.501344 107.285933 
L 25.65915 107.784023 
L 25.035801 107.796953 
L 24.111878 107.356498 
L 23.203245 106.643339 
L 23.031832 106.396086 
L 23.00785 105.225941 
L 23.212065 104.030646 
L 23.462941 103.084609 
L 23.82462 102.471076 
L 23.91829 101.967513 
L 24.051527 100.354898 
L 23.943635 99.145084 
L 23.345372 98.363073 
L 23.394078 97.693042 
L 23.996313 97.66013 
L 24.936312 97.870439 
L 25.7668 97.811217 
L 26.466128 97.441499 
L 26.929628 96.720871 
L 26.945069 95.445507 
L 26.679465 94.657172 
L 26.278988 94.393669 
L 25.966789 94.379145 
L 24.598098 94.553938 
L 22.82354 95.217786 
L 21.784359 95.239359 
L 20.860423 94.798338 
L 19.816958 94.611198 
L 19.061453 94.271678 
L 18.551083 93.71767 
L 17.781417 92.688432 
z
" clip-path="url(#p1c1be6fa14)" style="fill: #a9b7fe; stroke: #000000; stroke-width: 1.3"/>
    <path d="M 107.081762 251.046267 
L 108.149692 249.493439 
L 108.906524 248.27066 
L 110.046459 246.675553 
L 110.348771 246.444855 
L 110.719031 245.426494 
L 111.205402 244.630933 
L 111.630881 243.583457 
L 111.593316 241.703085 
L 112.053421 240.992055 
L 112.653588 240.306187 
L 113.397034 239.813989 
L 113.635259 239.163454 
L 113.612849 238.041063 
L 113.4861 237.285346 
L 113.397835 235.659155 
L 114.005178 233.934299 
L 114.118278 232.612594 
L 114.523762 231.958675 
L 114.639101 230.748919 
L 114.601136 230.244554 
L 114.424294 229.771 
L 114.0242 229.301384 
L 113.401652 228.864856 
L 112.49848 228.350021 
L 112.374598 227.734822 
L 112.641696 227.1397 
L 113.415405 226.759468 
L 114.498175 226.48439 
L 115.683621 225.758688 
L 115.829738 224.688886 
L 116.42654 223.834531 
L 116.732188 223.77235 
L 118.112407 224.418129 
L 118.58657 224.408539 
L 118.97092 224.092204 
L 119.268176 223.609058 
L 119.284385 223.019021 
L 119.045053 222.209583 
L 118.666207 221.402967 
L 118.097114 220.85335 
L 117.694848 220.271778 
L 117.593274 219.375561 
L 118.052903 218.636565 
L 118.600181 218.091783 
L 118.655316 216.659268 
L 118.446021 215.961217 
L 118.547581 215.454032 
L 118.948717 214.575649 
L 119.094717 213.505855 
L 119.100228 212.382908 
L 118.906034 211.039431 
L 118.560088 210.484717 
L 118.293344 209.704419 
L 118.444523 208.887086 
L 118.842799 207.868189 
L 119.789467 207.765054 
L 119.999237 207.087113 
L 120.650916 206.17509 
L 120.72621 205.753016 
L 120.703828 204.630051 
L 120.247997 204.162133 
L 119.463548 204.00942 
L 118.787314 203.686535 
L 118.68741 202.874282 
L 119.405834 201.659928 
L 119.472362 201.158121 
L 120.093962 199.681497 
L 120.320546 199.522929 
L 122.069071 198.871643 
L 122.522234 198.553929 
L 123.123196 197.964335 
L 123.344481 197.535815 
L 123.518102 196.646293 
L 124.157399 196.055929 
L 125.632689 195.140134 
L 126.537601 194.428344 
L 126.595789 193.502659 
L 126.798639 192.150589 
L 125.131144 191.105738 
L 125.076791 190.297814 
L 125.333208 189.714602 
L 126.002353 188.699594 
L 126.457092 188.459436 
L 126.794008 188.067669 
L 126.861316 187.603766 
L 126.501486 186.840502 
L 125.871286 185.967205 
L 125.378964 183.999215 
L 125.251836 183.744551 
L 125.111105 182.850298 
L 125.47504 182.595639 
L 125.711163 182.095664 
L 125.939835 181.22487 
L 126.543603 180.656234 
L 127.181919 180.271804 
L 127.450555 179.864502 
L 126.787762 179.011692 
L 126.801253 178.145241 
L 126.342561 176.731279 
L 125.956957 174.357506 
L 124.896241 173.605475 
L 124.545842 172.993683 
L 124.503345 172.406589 
L 125.166809 171.744003 
L 125.625466 171.611091 
L 126.31849 170.885501 
L 127.634316 170.549237 
L 127.764698 169.371289 
L 128.521029 168.737175 
L 129.033296 168.201309 
L 130.427257 167.152469 
L 131.304114 166.392282 
L 131.26478 165.959695 
L 131.857246 166.062668 
L 132.3122 165.775279 
L 133.329054 164.781887 
L 133.485216 164.523848 
L 134.077444 164.187621 
L 134.134584 162.425541 
L 133.966122 160.90015 
L 134.291235 159.874028 
L 135.359741 159.157837 
L 136.759766 160.056507 
L 137.411488 160.390452 
L 138.241767 160.443751 
L 138.567364 160.599357 
L 138.739149 161.128441 
L 139.30047 161.557535 
L 140.085253 161.634505 
L 141.187745 161.47295 
L 142.517393 161.145271 
L 143.206332 161.038697 
L 143.805544 161.049999 
L 145.115164 162.042708 
L 146.429111 162.086341 
L 148.378637 161.652949 
L 149.772316 161.069149 
L 150.020071 160.785959 
L 150.641344 160.750763 
L 151.333953 160.82963 
L 152.042424 160.537216 
L 152.357419 160.160525 
L 152.858968 159.895588 
L 153.341587 159.839264 
L 154.132489 159.058753 
L 154.5714 159.119962 
L 155.222498 159.431238 
L 156.541478 159.729157 
L 157.257133 159.807586 
L 158.274609 158.83708 
L 158.773507 158.433394 
L 159.780363 158.088969 
L 160.167621 157.872417 
L 160.544991 157.146861 
L 161.377768 153.817199 
L 161.771735 152.767012 
L 162.440724 151.641925 
L 162.97875 150.889837 
L 163.75027 150.295241 
L 164.212474 149.197037 
L 164.088728 148.759132 
L 165.009643 147.559036 
L 165.284398 146.303007 
L 165.207234 144.729114 
L 165.025165 143.667099 
L 165.497801 143.101225 
L 166.189365 141.952375 
L 166.512572 140.810873 
L 166.612165 140.021464 
L 166.957965 138.856183 
L 167.225176 138.387151 
L 167.860726 136.729643 
L 167.893084 136.034317 
L 167.674799 135.482224 
L 167.61577 133.653666 
L 167.955973 132.210279 
L 168.354194 131.368259 
L 168.527495 130.808944 
L 168.60594 130.112118 
L 168.489237 128.863904 
L 168.291335 128.172585 
L 168.554931 127.518731 
L 168.757931 126.124744 
L 169.119252 125.746582 
L 168.823627 124.779573 
L 168.895785 123.759156 
L 169.150346 122.641783 
L 169.717211 121.008991 
L 170.061174 119.751019 
L 170.64003 118.71993 
L 170.942395 117.694933 
L 170.640457 116.403165 
L 170.575385 115.431564 
L 170.865011 113.758223 
L 171.859319 112.764946 
L 172.940395 111.492895 
L 173.203117 110.792408 
L 173.528093 108.561932 
L 173.726154 107.777013 
L 173.703249 108.501287 
L 176.659229 110.343376 
L 178.073278 111.249671 
L 179.025155 111.794781 
L 179.035581 112.19703 
L 179.646312 112.65443 
L 179.976512 113.138403 
L 180.385987 112.846802 
L 180.959599 112.701842 
L 181.364694 112.945189 
L 182.213425 112.545715 
L 182.838183 112.586978 
L 183.101995 112.332686 
L 183.981642 112.256323 
L 184.390683 112.427273 
L 185.164252 112.480756 
L 185.37781 112.177887 
L 186.495939 112.871974 
L 187.393898 113.046071 
L 187.812918 113.504966 
L 187.81045 114.175776 
L 188.92091 115.05726 
L 189.813059 115.365054 
L 191.169031 115.468273 
L 191.415741 115.188086 
L 192.303244 115.262092 
L 192.508791 114.815906 
L 192.813097 114.804051 
L 192.939623 115.190006 
L 193.212959 115.196263 
L 193.620945 115.640809 
L 193.674612 116.669802 
L 194.862909 117.295478 
L 195.446386 117.362681 
L 195.713241 117.471726 
L 195.988032 117.901996 
L 196.206873 117.876672 
L 196.275141 119.015616 
L 196.654432 119.071696 
L 197.118661 119.482475 
L 197.091079 120.395255 
L 197.460077 120.499951 
L 197.440534 120.917959 
L 197.774671 120.941686 
L 198.12135 120.693945 
L 198.51282 121.151661 
L 199.239666 120.56628 
L 199.251797 121.147562 
L 199.818246 121.673567 
L 199.712831 122.343494 
L 200.469703 123.116547 
L 201.25826 123.688916 
L 201.389965 123.352102 
L 202.421112 123.343415 
L 203.247638 123.032555 
L 203.829382 122.60229 
L 204.657019 122.296081 
L 205.070874 122.259752 
L 205.288189 123.268779 
L 205.215146 123.612735 
L 204.834353 123.822502 
L 204.653865 124.160276 
L 204.541886 124.810498 
L 204.773115 126.017976 
L 205.21195 127.200946 
L 205.480784 128.198872 
L 205.499891 129.180725 
L 205.940817 129.402424 
L 206.54215 129.327577 
L 207.140865 129.106965 
L 207.728712 129.408599 
L 208.008181 129.884291 
L 208.739525 130.078695 
L 209.16159 130.404595 
L 209.76298 131.395978 
L 210.530557 132.384675 
L 210.767587 132.818629 
L 210.898713 134.216485 
L 210.73234 136.351621 
L 210.797562 137.562962 
L 211.189859 138.496058 
L 211.573217 138.969128 
L 212.642394 140.505426 
L 213.729365 141.894979 
L 214.153971 142.346246 
L 214.680325 142.691107 
L 215.288183 142.95096 
L 215.771246 143.213268 
L 216.31758 143.515746 
L 216.760422 143.917078 
L 218.847776 145.133646 
L 219.456212 145.361896 
L 218.38185 145.452478 
L 212.525595 164.503093 
L 214.017659 165.062083 
L 213.061537 167.450931 
L 211.898217 170.692355 
L 210.886947 174.266185 
L 210.07362 177.333921 
L 209.045004 181.074346 
L 207.855637 185.11134 
L 205.744253 191.946453 
L 205.080561 195.220096 
L 204.80435 198.110464 
L 204.41775 200.668209 
L 204.248669 202.657045 
L 204.147538 206.003595 
L 204.106825 209.244547 
L 204.051657 211.753765 
L 204.068692 214.763185 
L 203.965927 216.96012 
L 203.859522 220.034977 
L 203.871692 222.794269 
L 204.084593 224.127546 
L 204.163115 227.09435 
L 204.097524 229.060161 
L 204.509954 234.236294 
L 205.007022 236.295997 
L 205.871467 239.079899 
L 206.840745 241.924152 
L 208.939906 247.317868 
L 209.571762 248.831305 
L 210.323718 250.11256 
L 211.42133 252.076462 
L 212.757084 254.537896 
L 213.736086 256.81796 
L 214.590923 260.187148 
L 214.792574 261.914393 
L 214.663839 262.882277 
L 214.492972 265.854021 
L 214.085332 268.391207 
L 213.165592 272.380967 
L 212.720032 274.041048 
L 211.915008 276.439664 
L 209.888861 281.203701 
L 207.725689 286.388696 
L 206.223807 289.261316 
L 203.26574 295.214523 
L 201.160751 299.1018 
L 199.954298 301.13278 
L 198.6345 303.750479 
L 197.845649 304.832356 
L 197.07443 306.818587 
L 196.57499 308.898022 
L 196.201059 309.950698 
L 195.621773 312.198543 
L 194.874128 316.456868 
L 194.488669 317.99042 
L 194.493251 318.225433 
L 194.461955 318.531925 
L 193.817133 318.610355 
L 191.532927 318.760022 
L 188.236825 319.055784 
L 186.893613 319.062842 
L 185.891357 319.038748 
L 184.505436 319.317086 
L 180.486261 319.794181 
L 177.437742 320.001229 
L 176.094619 320.341196 
L 170.988264 320.442926 
L 169.06027 320.606785 
L 167.40334 320.828253 
L 166.679718 320.989106 
L 164.527647 321.366311 
L 163.061545 321.792832 
L 161.320015 321.932052 
L 159.790096 322.276464 
L 155.948248 323.314635 
L 153.899982 323.690478 
L 151.790882 324.150393 
L 149.583088 324.86372 
L 148.92465 325.169749 
L 145.247279 326.121446 
L 142.440882 327.013714 
L 142.112052 327.187733 
L 142.004938 327.575453 
L 140.625474 327.3652 
L 139.47747 327.100138 
L 137.276547 327.26809 
L 135.890151 327.336837 
L 134.180596 327.576597 
L 132.668606 327.483989 
L 131.158913 327.514427 
L 129.971638 327.333047 
L 128.079259 326.590765 
L 125.318707 325.290311 
L 124.938307 324.640606 
L 123.057351 322.418876 
L 122.006295 320.878606 
L 120.941311 318.639822 
L 120.307928 317.584595 
L 120.042625 316.562757 
L 120.031172 315.987847 
L 119.765939 314.966009 
L 119.920856 312.497236 
L 120.172927 310.807547 
L 120.556434 309.567264 
L 121.16735 308.798362 
L 122.747491 306.852007 
L 122.934353 305.985521 
L 122.830607 304.878171 
L 122.935111 302.686913 
L 123.469381 299.608515 
L 124.094724 297.585813 
L 124.215893 296.631413 
L 124.780356 295.068421 
L 125.291642 294.35288 
L 125.588536 293.430515 
L 125.538761 292.690724 
L 125.23695 291.603709 
L 124.913249 289.424025 
L 124.732562 289.145938 
L 124.05877 288.736071 
L 123.000321 288.36956 
L 121.761245 287.72497 
L 121.084775 287.174009 
L 120.501089 286.022704 
L 119.491777 284.597109 
L 119.237389 284.143779 
L 118.446633 283.137246 
L 118.117372 282.438696 
L 117.646585 281.672431 
L 117.442047 280.195565 
L 117.662575 278.957417 
L 118.016891 277.398664 
L 118.444822 276.01458 
L 119.075191 274.239091 
L 119.64874 273.134383 
L 119.809794 272.425916 
L 120.444395 270.861503 
L 121.115389 269.366936 
L 121.574833 267.806071 
L 121.55588 266.854507 
L 121.293892 266.013435 
L 121.209748 265.309926 
L 120.910603 264.364028 
L 120.825833 263.625535 
L 120.675099 261.336216 
L 120.483056 260.493732 
L 120.055781 260.150058 
L 119.856641 257.192093 
L 119.701049 256.419453 
L 119.347305 256.250451 
L 118.327997 256.094913 
L 117.79484 255.717806 
L 116.934541 254.74769 
L 115.740031 254.595713 
L 115.514458 253.824493 
L 115.161967 253.726053 
L 114.148408 253.852155 
L 113.406326 253.549873 
L 112.843167 253.420124 
L 111.93385 253.509129 
L 111.40631 253.414244 
L 110.940272 252.894639 
L 109.106206 252.2972 
L 108.071359 251.366249 
z
" clip-path="url(#p1c1be6fa14)" style="fill: #a3b3ff; stroke: #000000; stroke-width: 1.3"/>
    <path d="M 32.885961 358.641221 
L 32.909527 357.762838 
L 33.022659 357.196423 
L 33.442113 356.393247 
L 33.49463 355.911503 
L 33.48434 354.385172 
L 33.602803 354.090474 
L 34.377331 353.384356 
L 35.064229 352.45023 
L 35.815129 352.623086 
L 36.075174 352.137047 
L 35.959084 351.532799 
L 36.027982 350.841891 
L 36.599423 350.349402 
L 37.3282 350.459725 
L 37.759398 350.220387 
L 38.031197 348.271146 
L 38.461769 348.011406 
L 39.454386 348.826757 
L 40.095537 348.709078 
L 40.2742 348.308143 
L 40.242278 346.740846 
L 40.299139 346.467844 
L 40.663788 346.021646 
L 40.981273 345.304016 
L 41.290904 344.189893 
L 41.87223 343.174567 
L 42.009925 342.795481 
L 42.215483 339.634906 
L 42.231856 338.400854 
L 42.609646 337.578151 
L 43.52914 336.848084 
L 43.791281 336.466427 
L 43.962812 335.710405 
L 44.064509 334.579589 
L 44.010558 333.97464 
L 43.816211 333.602418 
L 43.869388 333.162082 
L 44.167703 332.507855 
L 45.749101 330.63541 
L 46.234552 329.998321 
L 46.97842 328.791833 
L 47.704413 327.731546 
L 48.453699 327.820494 
L 48.676431 327.544073 
L 48.59634 326.667838 
L 48.591213 325.39282 
L 48.850407 324.864822 
L 49.4838 324.350104 
L 50.24787 324.146514 
L 50.654486 323.719892 
L 50.638356 322.925752 
L 50.986614 322.688743 
L 51.220891 322.976735 
L 51.530143 323.889659 
L 51.963922 324.8006 
L 52.868764 325.388009 
L 53.492346 325.417154 
L 54.25112 324.941867 
L 55.424358 323.412166 
L 55.620974 322.865052 
L 55.468411 321.488661 
L 55.403544 320.340287 
L 54.693588 319.121207 
L 54.173385 319.069511 
L 53.683628 319.497254 
L 53.127884 319.739115 
L 52.567041 319.729676 
L 52.084926 319.509791 
L 52.027317 318.716507 
L 52.095853 318.004036 
L 52.465245 316.763299 
L 52.46269 315.613644 
L 52.545649 314.587638 
L 52.749955 313.391721 
L 52.7313 312.472807 
L 52.555379 311.995201 
L 52.456639 311.223766 
L 52.463779 310.555144 
L 52.609917 309.569252 
L 52.484966 308.527117 
L 52.574711 307.835212 
L 52.545862 306.414278 
L 52.756401 305.532056 
L 52.597513 304.866274 
L 52.565691 303.298992 
L 52.647889 302.23159 
L 52.799905 301.538402 
L 53.524497 300.394764 
L 53.852305 300.179186 
L 54.45264 300.08282 
L 54.768799 299.282423 
L 54.938929 296.41487 
L 55.06559 295.492383 
L 55.585882 294.520375 
L 55.931587 294.158022 
L 56.995902 293.383058 
L 57.238351 293.043831 
L 57.145983 292.586085 
L 57.277598 291.914322 
L 57.219153 291.079061 
L 57.313669 290.617469 
L 57.278486 289.907725 
L 56.876794 289.560175 
L 55.892694 289.162788 
L 55.632866 288.645494 
L 55.722353 287.9326 
L 56.149714 287.506152 
L 57.091228 286.817715 
L 56.842172 284.774267 
L 56.674802 283.690429 
L 56.43795 283.277657 
L 55.907033 282.702947 
L 55.74687 281.974779 
L 55.729067 281.097269 
L 55.53922 278.906196 
L 55.317898 278.241702 
L 55.229334 276.947419 
L 55.529344 276.377184 
L 55.98697 276.409176 
L 56.660697 276.855534 
L 57.179739 277.869136 
L 57.717016 278.756953 
L 58.269134 279.351646 
L 58.940717 279.693063 
L 59.303818 280.187236 
L 59.801639 281.180866 
L 59.719036 282.227266 
L 60.059803 282.638489 
L 60.280885 283.302994 
L 60.705823 283.774901 
L 60.363478 284.304583 
L 60.509193 285.346872 
L 60.832477 285.925282 
L 61.799346 286.491044 
L 62.49464 286.978396 
L 63.32933 287.170066 
L 65.319862 287.003764 
L 66.18336 286.567801 
L 68.578621 284.846299 
L 69.784593 283.881268 
L 70.947742 282.854128 
L 73.819427 280.035652 
L 74.368664 279.460345 
L 75.133139 278.231995 
L 76.129943 276.163018 
L 78.218839 270.56021 
L 78.391694 269.866625 
L 78.410159 267.692276 
L 78.33966 265.226931 
L 78.085696 263.957028 
L 78.061265 262.745425 
L 78.112867 262.221731 
L 78.349002 261.56885 
L 78.815244 260.995259 
L 80.213321 260.276619 
L 80.184957 259.900968 
L 79.7782 259.303236 
L 78.660554 257.444366 
L 78.186024 256.576206 
L 78.450196 256.278568 
L 78.973948 256.497674 
L 79.36146 256.147349 
L 80.059742 255.956329 
L 80.785397 255.448019 
L 82.577007 253.930398 
L 83.096049 253.602477 
L 83.722864 253.412932 
L 86.697434 253.211618 
L 88.09513 253.006355 
L 89.91651 252.969203 
L 90.894446 252.808688 
L 93.342171 252.547067 
L 94.313032 252.033819 
L 99.772469 251.675392 
L 101.834937 251.422308 
L 105.721058 251.23721 
L 107.081762 251.046267 
L 108.071359 251.366249 
L 109.106206 252.2972 
L 110.940272 252.894639 
L 111.40631 253.414244 
L 111.93385 253.509129 
L 112.843167 253.420124 
L 113.406326 253.549873 
L 114.148408 253.852155 
L 115.161967 253.726053 
L 115.514458 253.824493 
L 115.740031 254.595713 
L 116.934541 254.74769 
L 117.79484 255.717806 
L 118.327997 256.094913 
L 119.347305 256.250451 
L 119.701049 256.419453 
L 119.856641 257.192093 
L 120.055781 260.150058 
L 120.483056 260.493732 
L 120.675099 261.336216 
L 120.825833 263.625535 
L 120.910603 264.364028 
L 121.209748 265.309926 
L 121.293892 266.013435 
L 121.55588 266.854507 
L 121.574833 267.806071 
L 121.115389 269.366936 
L 120.444395 270.861503 
L 119.809794 272.425916 
L 119.64874 273.134383 
L 119.075191 274.239091 
L 118.444822 276.01458 
L 118.016891 277.398664 
L 117.662575 278.957417 
L 117.442047 280.195565 
L 117.646585 281.672431 
L 118.117372 282.438696 
L 118.446633 283.137246 
L 119.237389 284.143779 
L 119.491777 284.597109 
L 120.501089 286.022704 
L 121.084775 287.174009 
L 121.761245 287.72497 
L 123.000321 288.36956 
L 124.05877 288.736071 
L 124.732562 289.145938 
L 124.913249 289.424025 
L 125.23695 291.603709 
L 125.538761 292.690724 
L 125.588536 293.430515 
L 125.291642 294.35288 
L 124.780356 295.068421 
L 124.215893 296.631413 
L 124.094724 297.585813 
L 123.469381 299.608515 
L 122.935111 302.686913 
L 122.830607 304.878171 
L 122.934353 305.985521 
L 122.747491 306.852007 
L 121.16735 308.798362 
L 120.401817 308.161122 
L 119.370573 307.471515 
L 117.516665 306.15051 
L 116.614439 305.68813 
L 114.880235 305.159192 
L 114.29724 305.087006 
L 112.989363 305.113508 
L 110.69051 305.431933 
L 108.808632 305.825342 
L 107.120167 306.549079 
L 106.382864 307.065692 
L 105.267358 308.405453 
L 104.968154 309.017586 
L 104.665166 310.486677 
L 104.303212 311.079089 
L 103.32238 311.871901 
L 102.175761 312.689673 
L 101.722417 312.8663 
L 100.912219 313.885481 
L 100.199023 314.569042 
L 98.98194 314.970037 
L 98.387065 315.337377 
L 98.144989 315.697539 
L 98.152527 316.07362 
L 98.832915 317.898947 
L 99.832537 320.114432 
L 100.668581 322.459246 
L 101.412427 324.345708 
L 101.41913 324.680391 
L 100.526372 325.722257 
L 99.732353 326.511879 
L 98.732809 327.4101 
L 98.183642 327.985339 
L 97.143303 327.881105 
L 94.74162 327.198548 
L 93.218459 326.832352 
L 91.714817 326.403358 
L 91.090762 326.35367 
L 90.943219 327.275976 
L 91.446042 327.495547 
L 93.17633 327.836506 
L 94.991318 328.259169 
L 96.223951 328.631297 
L 96.072198 329.34486 
L 95.891644 329.662359 
L 94.389212 329.295731 
L 92.909644 329.033062 
L 90.884519 328.489294 
L 90.304194 328.54313 
L 90.069008 329.237401 
L 90.075732 329.572085 
L 90.375122 330.004628 
L 91.439095 330.25475 
L 91.874967 330.245862 
L 92.26306 329.924127 
L 93.450776 330.129741 
L 94.285577 330.342553 
L 95.93162 330.622841 
L 96.394475 330.926652 
L 95.955499 331.813477 
L 95.644985 331.861799 
L 94.309058 331.51278 
L 92.348811 331.093085 
L 91.975198 331.100703 
L 91.754836 331.501848 
L 90.379453 331.258659 
L 90.222267 331.700516 
L 94.747689 332.673965 
L 94.79462 332.944833 
L 94.571167 334.224504 
L 94.302126 334.271402 
L 93.838362 333.925616 
L 92.398712 333.578725 
L 91.690879 333.488745 
L 89.980094 333.084989 
L 89.847735 333.735166 
L 89.959593 334.130119 
L 89.847179 334.738474 
L 89.961133 335.237797 
L 90.569765 335.559619 
L 90.469669 335.75007 
L 89.684405 335.932918 
L 89.967564 336.596201 
L 89.220783 336.632437 
L 89.248199 336.966115 
L 90.288911 337.091293 
L 90.751975 337.395086 
L 89.504919 337.337113 
L 88.94952 337.599272 
L 88.464503 338.257231 
L 88.654617 338.420178 
L 89.267084 337.90603 
L 90.074512 337.785142 
L 91.279255 337.802566 
L 91.612904 337.879176 
L 91.793224 338.585973 
L 91.646048 339.529858 
L 91.2851 340.163696 
L 90.520497 340.346703 
L 90.29897 340.685461 
L 89.697765 340.739725 
L 89.995462 341.088888 
L 89.97378 342.07163 
L 89.520103 342.227299 
L 90.132905 342.75786 
L 90.003155 343.53398 
L 88.880297 343.452481 
L 88.59562 343.751114 
L 89.742528 343.998949 
L 89.934815 344.26685 
L 89.670273 345.567787 
L 89.111972 345.684176 
L 88.505457 345.466147 
L 88.132296 345.494763 
L 88.119151 345.871269 
L 89.348242 346.076008 
L 89.562073 346.385467 
L 89.120436 348.170671 
L 88.789179 348.219431 
L 88.100985 348.066067 
L 87.540511 348.077509 
L 87.567663 348.390778 
L 88.484639 348.559885 
L 88.737426 348.743136 
L 88.770024 349.327534 
L 88.602437 350.292257 
L 88.181595 352.077041 
L 87.910361 353.043881 
L 87.170623 356.528543 
L 86.854374 358.353196 
L 86.480704 359.38513 
L 86.085955 359.372193 
L 84.875893 359.083092 
L 84.399113 359.113834 
L 84.534538 359.654717 
L 85.852431 360.149858 
L 86.367475 359.951509 
L 86.260625 360.831581 
L 86.439688 361.475988 
L 86.932487 362.238818 
L 86.944244 362.823643 
L 86.672551 363.770082 
L 86.406108 364.966656 
L 86.278911 365.868145 
L 85.693096 368.743032 
L 85.44008 369.584095 
L 85.234075 370.696023 
L 84.946397 371.872621 
L 84.389775 372.071824 
L 84.738764 374.969614 
L 84.985453 375.884466 
L 84.915952 376.554369 
L 84.338235 376.733588 
L 83.901778 376.700511 
L 83.668157 375.409737 
L 83.385315 374.767453 
L 83.030464 374.670293 
L 82.118314 374.730945 
L 81.169586 375.042593 
L 81.028125 375.233898 
L 81.223519 376.692864 
L 81.124506 376.924717 
L 79.940721 377.931247 
L 79.125907 378.700405 
L 78.754074 378.791431 
L 78.208994 378.530764 
L 78.284286 379.177289 
L 77.887551 379.059999 
L 77.421417 378.58889 
L 77.234129 378.571726 
L 76.610184 379.545816 
L 76.782178 379.835118 
L 77.520772 379.401751 
L 77.674859 379.837253 
L 77.559228 380.278859 
L 78.699112 380.192522 
L 79.205594 380.600394 
L 79.188679 380.788568 
L 78.48776 381.032746 
L 78.370025 381.369981 
L 79.564711 380.906286 
L 79.864886 381.380798 
L 78.983995 381.963481 
L 78.079305 382.399659 
L 77.685525 382.428722 
L 76.918181 383.489745 
L 76.597937 384.081375 
L 76.029516 384.720089 
L 75.491754 384.814522 
L 75.478641 385.191032 
L 76.149788 385.532522 
L 76.30472 386.010004 
L 76.106852 386.494713 
L 75.567693 386.52676 
L 75.354381 386.238305 
L 74.979275 386.162576 
L 74.615893 386.67168 
L 73.520502 388.972001 
L 73.407901 389.559379 
L 74.159102 389.753392 
L 74.352054 390.06268 
L 73.315017 390.104939 
L 72.891517 390.719694 
L 72.128484 390.96517 
L 71.536451 391.457971 
L 71.091427 392.031755 
L 71.264109 392.362456 
L 72.057953 392.617999 
L 72.397209 392.966283 
L 72.115157 393.389727 
L 71.484124 394.008741 
L 71.121615 394.559835 
L 70.266286 395.371286 
L 69.815149 395.652373 
L 68.773904 396.509647 
L 68.567708 396.576879 
L 67.847946 395.881173 
L 67.151894 395.330813 
L 66.860571 395.294797 
L 66.578475 395.718834 
L 67.954159 397.028136 
L 67.672972 397.493568 
L 66.412389 398.794604 
L 65.565828 399.020828 
L 65.197853 399.300218 
L 64.619029 399.416529 
L 64.200712 399.257715 
L 63.959033 398.594195 
L 62.719158 398.870518 
L 62.001863 399.32393 
L 61.555544 399.834768 
L 60.738797 400.499645 
L 60.641295 400.814895 
L 60.578175 401.79851 
L 60.689629 402.172461 
L 61.228625 403.164687 
L 61.628705 403.449283 
L 62.063545 403.398339 
L 63.27705 402.850725 
L 63.610734 402.927278 
L 63.535415 403.30507 
L 62.674532 403.845431 
L 61.646029 404.305246 
L 61.11596 404.776394 
L 60.858886 405.408757 
L 60.205116 405.923286 
L 60.265268 406.841949 
L 59.808288 407.854671 
L 58.980609 408.999859 
L 58.707861 409.883378 
L 58.15485 410.250009 
L 57.36902 411.415926 
L 57.129842 411.901513 
L 57.091317 413.072456 
L 57.01468 413.387864 
L 56.491835 414.21354 
L 56.025581 414.766805 
L 55.685548 415.400887 
L 55.011201 416.940182 
L 53.189819 418.210884 
L 52.761723 418.595958 
L 51.360834 420.129255 
L 50.601209 420.542175 
L 50.343074 421.112162 
L 49.48367 422.738716 
L 49.086969 423.645812 
L 48.217415 424.771506 
L 47.264957 425.898916 
L 46.26836 426.901829 
L 45.133502 428.241853 
L 44.014963 429.372716 
L 42.913102 430.29441 
L 42.171387 430.56 
L 41.153084 430.557736 
L 40.891726 429.612319 
L 40.837362 427.962043 
L 40.483372 426.882628 
L 40.442178 425.879574 
L 40.611484 425.019161 
L 41.15533 423.189093 
L 41.812732 421.837922 
L 42.481411 419.001954 
L 42.753138 418.076429 
L 42.63422 417.326397 
L 41.951569 416.420611 
L 41.662269 415.465275 
L 41.765814 413.414491 
L 41.750079 412.641327 
L 42.042152 411.694379 
L 42.68698 411.765042 
L 44.013475 411.674613 
L 44.378841 411.269815 
L 44.952036 409.857403 
L 45.374966 409.221588 
L 46.152702 408.682857 
L 46.165824 408.306341 
L 45.78978 407.164378 
L 45.497155 406.041691 
L 45.331463 405.041797 
L 45.257279 403.433354 
L 45.340239 402.407905 
L 46.014145 399.822687 
L 46.541316 398.180823 
L 47.729262 396.379483 
L 51.473975 391.682858 
L 54.272602 388.426792 
L 55.608053 386.726887 
L 55.914641 386.490158 
L 56.907642 385.29956 
L 59.486256 382.44536 
L 60.484296 381.504924 
L 61.212267 380.549051 
L 62.036026 380.218864 
L 61.819931 379.805068 
L 61.935522 379.36345 
L 62.774489 378.761126 
L 63.537762 377.491295 
L 64.635814 375.336108 
L 65.349536 372.645757 
L 65.685036 370.75766 
L 65.711722 370.02563 
L 65.676232 368.270571 
L 65.485406 367.040773 
L 65.105456 365.711031 
L 64.536435 364.259179 
L 63.24979 361.212707 
L 63.035517 360.882871 
L 62.465846 360.434347 
L 61.885678 359.463971 
L 60.732444 357.878318 
L 59.103526 356.385878 
L 58.053192 354.756127 
L 57.715244 354.470259 
L 57.258235 354.45867 
L 56.623308 354.889984 
L 56.122283 354.75389 
L 56.048176 354.17035 
L 56.24813 353.789408 
L 56.093045 353.311949 
L 55.422587 353.012519 
L 54.350145 352.344553 
L 53.638619 352.066392 
L 52.763602 351.917601 
L 51.414178 351.924428 
L 49.986895 352.183697 
L 49.315525 352.866616 
L 48.832745 353.629059 
L 47.870207 354.275994 
L 46.819768 354.694923 
L 46.08411 355.274186 
L 45.910124 355.90543 
L 45.591629 356.580491 
L 44.591685 357.43763 
L 43.699439 358.480377 
L 43.126026 358.868471 
L 41.686476 359.546303 
L 41.177441 360.037486 
L 40.182708 361.144787 
L 38.62475 363.142231 
L 38.285251 363.797327 
L 38.248906 365.073217 
L 37.687873 366.067143 
L 37.455154 366.866443 
L 36.669978 368.074426 
L 35.59103 369.121086 
L 34.699555 369.180973 
L 34.195579 368.899173 
L 33.676172 367.864628 
L 33.664229 367.279222 
L 33.91913 366.542455 
L 34.600089 365.316203 
L 34.673651 364.85444 
L 34.496043 364.29405 
L 34.034442 364.052788 
L 33.493153 363.980009 
L 33.15484 363.673779 
L 33.135649 362.733282 
L 33.21883 361.728247 
L 33.513498 360.906659 
L 33.481649 360.364248 
L 33.010648 359.662945 
z
" clip-path="url(#p1c1be6fa14)" style="fill: #9daeff; stroke: #000000; stroke-width: 1.3"/>
   </g>
  </g>
 </g>
 <defs>
  <clipPath id="p1c1be6fa14">
   <rect x="7.2" y="7.2" width="222.363651" height="443.52"/>
  </clipPath>
 </defs>
</svg>
