<svg width="19" height="20" viewBox="0 0 19 20" fill="none" xmlns="http://www.w3.org/2000/svg">
<path d="M18.0027 10.0023H16.0027C15.7375 10.0023 15.4832 10.1077 15.2956 10.2952C15.1081 10.4828 15.0027 10.7371 15.0027 11.0023C15.0027 11.2675 15.1081 11.5219 15.2956 11.7094C15.4832 11.897 15.7375 12.0023 16.0027 12.0023V14.0023H14.8167C14.9355 13.6821 14.9981 13.3438 15.0017 13.0023C15.0017 12.3419 14.7838 11.7 14.3818 11.1761C13.9797 10.6522 13.4161 10.2756 12.7782 10.1047C12.1403 9.93376 11.4639 9.97809 10.8538 10.2308C10.2436 10.4835 9.73395 10.9304 9.40374 11.5023C9.33704 11.6161 9.2935 11.7419 9.27564 11.8726C9.25777 12.0033 9.26593 12.1362 9.29964 12.2637C9.33335 12.3912 9.39194 12.5107 9.47205 12.6155C9.55216 12.7203 9.6522 12.8081 9.76641 12.8741C9.88062 12.94 10.0067 12.9827 10.1375 12.9997C10.2683 13.0167 10.4012 13.0077 10.5284 12.9731C10.6557 12.9386 10.7749 12.8792 10.8791 12.7984C10.9833 12.7176 11.0706 12.617 11.1357 12.5023C11.2235 12.3503 11.3497 12.2241 11.5017 12.1363C11.6538 12.0485 11.8262 12.0023 12.0017 12.0023C12.267 12.0023 12.5213 12.1077 12.7088 12.2952C12.8964 12.4828 13.0017 12.7371 13.0017 13.0023C13.0017 13.2675 12.8964 13.5219 12.7088 13.7094C12.5213 13.897 12.267 14.0023 12.0017 14.0023C11.7365 14.0023 11.4822 14.1077 11.2946 14.2952C11.1071 14.4828 11.0017 14.7371 11.0017 15.0023C11.0017 15.2675 11.1071 15.5219 11.2946 15.7094C11.4822 15.897 11.7365 16.0023 12.0017 16.0023C12.267 16.0023 12.5213 16.1077 12.7088 16.2952C12.8964 16.4828 13.0017 16.7371 13.0017 17.0023C13.0017 17.2675 12.8964 17.5219 12.7088 17.7094C12.5213 17.897 12.267 18.0023 12.0017 18.0023C11.8262 18.0023 11.6538 17.9561 11.5017 17.8683C11.3497 17.7806 11.2235 17.6543 11.1357 17.5023C11.0706 17.3877 10.9833 17.2871 10.8791 17.2063C10.7749 17.1255 10.6557 17.0661 10.5284 17.0315C10.4012 16.997 10.2683 16.9879 10.1375 17.0049C10.0067 17.0219 9.88062 17.0646 9.76641 17.1306C9.6522 17.1965 9.55216 17.2844 9.47205 17.3891C9.39194 17.4939 9.33335 17.6135 9.29964 17.741C9.26593 17.8685 9.25777 18.0014 9.27564 18.132C9.2935 18.2627 9.33704 18.3886 9.40374 18.5023C9.73395 19.0742 10.2436 19.5212 10.8538 19.7739C11.4639 20.0266 12.1403 20.0709 12.7782 19.9C13.4161 19.729 13.9797 19.3524 14.3818 18.8285C14.7838 18.3046 15.0017 17.6627 15.0017 17.0023C14.9981 16.6608 14.9355 16.3225 14.8167 16.0023H16.0017V19.0023C16.0017 19.2675 16.1071 19.5219 16.2946 19.7094C16.4822 19.897 16.7365 20.0023 17.0017 20.0023C17.267 20.0023 17.5213 19.897 17.7088 19.7094C17.8964 19.5219 18.0017 19.2675 18.0017 19.0023V12.0023C18.267 12.0023 18.5213 11.897 18.7088 11.7094C18.8964 11.5219 19.0017 11.2675 19.0017 11.0023C19.0017 10.7371 18.8964 10.4828 18.7088 10.2952C18.5213 10.1077 18.268 10.0023 18.0027 10.0023ZM6.03174 9.24532C6.06288 9.37352 6.11908 9.49428 6.1971 9.60066C6.27512 9.70704 6.37342 9.79693 6.48633 9.86515C6.59925 9.93337 6.72454 9.97858 6.855 9.99817C6.98546 10.0178 7.11851 10.0113 7.24648 9.97928C7.37445 9.94722 7.49481 9.89016 7.60063 9.81138C7.70644 9.7326 7.79563 9.63366 7.86304 9.52027C7.93046 9.40687 7.97477 9.28125 7.99342 9.15065C8.01208 9.02006 8.00471 8.88706 7.97174 8.75932L6.21474 1.72932C6.09183 1.23551 5.80725 0.797004 5.40631 0.483623C5.00537 0.170242 4.51112 0 4.00224 0C3.49335 0 2.9991 0.170242 2.59816 0.483623C2.19722 0.797004 1.91264 1.23551 1.78974 1.72932L0.0317355 8.75932C-0.00123562 8.88706 -0.00860638 9.02006 0.010048 9.15065C0.0287024 9.28125 0.0730131 9.40687 0.140427 9.52027C0.207842 9.63366 0.297027 9.7326 0.402846 9.81138C0.508665 9.89016 0.629025 9.94722 0.756994 9.97928C0.884962 10.0113 1.01801 10.0178 1.14847 9.99817C1.27893 9.97858 1.40423 9.93337 1.51714 9.86515C1.63005 9.79693 1.72835 9.70704 1.80637 9.60066C1.88439 9.49428 1.94059 9.37352 1.97174 9.24532L2.53174 7.00232H5.47174L6.03174 9.24532ZM3.03274 5.00232L3.72974 2.21532C3.75076 2.15994 3.78813 2.11225 3.83689 2.0786C3.88565 2.04495 3.94349 2.02693 4.00274 2.02693C4.06198 2.02693 4.11982 2.04495 4.16858 2.0786C4.21734 2.11225 4.25471 2.15994 4.27574 2.21532L4.97274 5.00232H3.03274ZM11.0027 5.00232H12.0027C12.2679 5.00259 12.5221 5.10803 12.7095 5.29551C12.897 5.48299 13.0025 5.73719 13.0027 6.00232V7.00232C13.0027 7.26754 13.1081 7.52189 13.2956 7.70943C13.4832 7.89697 13.7375 8.00232 14.0027 8.00232C14.268 8.00232 14.5223 7.89697 14.7098 7.70943C14.8974 7.52189 15.0027 7.26754 15.0027 7.00232V6.00232C15.0019 5.20692 14.6856 4.44432 14.1232 3.88188C13.5607 3.31944 12.7981 3.00312 12.0027 3.00232H11.0027C10.7375 3.00232 10.4832 3.10768 10.2956 3.29522C10.1081 3.48275 10.0027 3.73711 10.0027 4.00232C10.0027 4.26754 10.1081 4.52189 10.2956 4.70943C10.4832 4.89697 10.7375 5.00232 11.0027 5.00232ZM7.00274 14.0023H6.00274C5.7376 14.0021 5.4834 13.8966 5.29592 13.7091C5.10844 13.5217 5.003 13.2675 5.00274 13.0023V12.0023C5.00274 11.7371 4.89738 11.4828 4.70984 11.2952C4.52231 11.1077 4.26795 11.0023 4.00274 11.0023C3.73752 11.0023 3.48317 11.1077 3.29563 11.2952C3.10809 11.4828 3.00274 11.7371 3.00274 12.0023V13.0023C3.00353 13.7977 3.31986 14.5603 3.88229 15.1228C4.44473 15.6852 5.20733 16.0015 6.00274 16.0023H7.00274C7.26795 16.0023 7.52231 15.897 7.70984 15.7094C7.89738 15.5219 8.00274 15.2675 8.00274 15.0023C8.00274 14.7371 7.89738 14.4828 7.70984 14.2952C7.52231 14.1077 7.26795 14.0023 7.00274 14.0023Z" fill="black"/>
</svg>
